<mxfile host="Electron" modified="2023-11-11T02:04:22.542Z" agent="Mozilla/5.0 (Macintosh; Intel Mac OS X 10_15_7) AppleWebKit/537.36 (KHTML, like Gecko) draw.io/22.0.3 Chrome/114.0.5735.289 Electron/25.8.4 Safari/537.36" etag="r_ul1KIh-8no9MihER7f" version="22.0.3" type="device" pages="3">
  <diagram id="5Bs_7C5GXCGuwzPP5taS" name="Страница — 1">
    <mxGraphModel dx="376" dy="824" grid="1" gridSize="10" guides="1" tooltips="1" connect="1" arrows="1" fold="1" page="1" pageScale="1" pageWidth="827" pageHeight="1169" math="0" shadow="0">
      <root>
        <mxCell id="0" />
        <mxCell id="1" parent="0" />
        <mxCell id="f7ClcLhN1L0_eeYiRI0X-4" value=":Catalogue" style="html=1;whiteSpace=wrap;" parent="1" vertex="1">
          <mxGeometry x="160" y="100" width="110" height="40" as="geometry" />
        </mxCell>
        <mxCell id="f7ClcLhN1L0_eeYiRI0X-7" value="" style="endArrow=block;endFill=1;html=1;edgeStyle=orthogonalEdgeStyle;align=left;verticalAlign=top;rounded=0;" parent="1" edge="1">
          <mxGeometry x="-0.25" y="10" relative="1" as="geometry">
            <mxPoint x="10" y="179" as="sourcePoint" />
            <mxPoint x="205" y="180" as="targetPoint" />
            <mxPoint as="offset" />
            <Array as="points">
              <mxPoint x="108" y="180" />
            </Array>
          </mxGeometry>
        </mxCell>
        <mxCell id="f7ClcLhN1L0_eeYiRI0X-8" value="sell(num:Integer)" style="edgeLabel;resizable=0;html=1;align=left;verticalAlign=bottom;" parent="f7ClcLhN1L0_eeYiRI0X-7" connectable="0" vertex="1">
          <mxGeometry x="-1" relative="1" as="geometry">
            <mxPoint x="55" as="offset" />
          </mxGeometry>
        </mxCell>
        <mxCell id="Qi7Y7r9mOP32u_UWjPpb-3" style="edgeStyle=orthogonalEdgeStyle;rounded=0;orthogonalLoop=1;jettySize=auto;html=1;dashed=1;endArrow=none;endFill=0;" parent="1" source="f7ClcLhN1L0_eeYiRI0X-11" edge="1">
          <mxGeometry relative="1" as="geometry">
            <mxPoint x="470" y="580" as="targetPoint" />
          </mxGeometry>
        </mxCell>
        <mxCell id="f7ClcLhN1L0_eeYiRI0X-11" value=":Goods" style="html=1;whiteSpace=wrap;" parent="1" vertex="1">
          <mxGeometry x="415" y="100" width="110" height="40" as="geometry" />
        </mxCell>
        <mxCell id="Qi7Y7r9mOP32u_UWjPpb-5" value="" style="endArrow=block;endFill=1;html=1;edgeStyle=orthogonalEdgeStyle;align=left;verticalAlign=top;rounded=0;" parent="1" edge="1">
          <mxGeometry x="-0.25" y="10" relative="1" as="geometry">
            <mxPoint x="215" y="339.5" as="sourcePoint" />
            <mxPoint x="470" y="339.5" as="targetPoint" />
            <mxPoint as="offset" />
            <Array as="points">
              <mxPoint x="470" y="339.5" />
            </Array>
          </mxGeometry>
        </mxCell>
        <mxCell id="Qi7Y7r9mOP32u_UWjPpb-6" value="&amp;nbsp;produce(consumable_products)" style="edgeLabel;resizable=0;html=1;align=left;verticalAlign=bottom;" parent="Qi7Y7r9mOP32u_UWjPpb-5" connectable="0" vertex="1">
          <mxGeometry x="-1" relative="1" as="geometry">
            <mxPoint x="80" as="offset" />
          </mxGeometry>
        </mxCell>
        <mxCell id="WtpKnIh7mjB2KUd-CaIE-1" value="" style="edgeStyle=orthogonalEdgeStyle;rounded=0;orthogonalLoop=1;jettySize=auto;html=1;endArrow=none;endFill=0;dashed=1;" parent="1" source="f7ClcLhN1L0_eeYiRI0X-4" edge="1">
          <mxGeometry relative="1" as="geometry">
            <mxPoint x="210" y="580" as="targetPoint" />
            <mxPoint x="215" y="150" as="sourcePoint" />
            <Array as="points">
              <mxPoint x="210" y="210" />
              <mxPoint x="210" y="210" />
            </Array>
          </mxGeometry>
        </mxCell>
        <mxCell id="f7ClcLhN1L0_eeYiRI0X-5" value="" style="html=1;points=[[0,0,0,0,5],[0,1,0,0,-5],[1,0,0,0,5],[1,1,0,0,-5]];perimeter=orthogonalPerimeter;outlineConnect=0;targetShapes=umlLifeline;portConstraint=eastwest;newEdgeStyle={&quot;curved&quot;:0,&quot;rounded&quot;:0};" parent="1" vertex="1">
          <mxGeometry x="205" y="166" width="10" height="394" as="geometry" />
        </mxCell>
        <mxCell id="WtpKnIh7mjB2KUd-CaIE-3" value="alt" style="shape=umlFrame;whiteSpace=wrap;html=1;pointerEvents=0;" parent="1" vertex="1">
          <mxGeometry x="70" y="190" width="740" height="360" as="geometry" />
        </mxCell>
        <mxCell id="WtpKnIh7mjB2KUd-CaIE-8" value="" style="line;strokeWidth=1;fillColor=none;align=left;verticalAlign=middle;spacingTop=-1;spacingLeft=3;spacingRight=3;rotatable=0;labelPosition=right;points=[];portConstraint=eastwest;strokeColor=inherit;dashed=1;" parent="1" vertex="1">
          <mxGeometry x="70" y="300" width="740" height="8" as="geometry" />
        </mxCell>
        <mxCell id="WtpKnIh7mjB2KUd-CaIE-9" style="edgeStyle=orthogonalEdgeStyle;rounded=0;orthogonalLoop=1;jettySize=auto;html=1;dashed=1;endArrow=none;endFill=0;" parent="1" source="WtpKnIh7mjB2KUd-CaIE-10" edge="1">
          <mxGeometry relative="1" as="geometry">
            <mxPoint x="705" y="580" as="targetPoint" />
          </mxGeometry>
        </mxCell>
        <mxCell id="WtpKnIh7mjB2KUd-CaIE-10" value=":AProduct" style="html=1;whiteSpace=wrap;" parent="1" vertex="1">
          <mxGeometry x="650" y="100" width="110" height="40" as="geometry" />
        </mxCell>
        <mxCell id="WtpKnIh7mjB2KUd-CaIE-12" value="ref" style="shape=umlFrame;whiteSpace=wrap;html=1;pointerEvents=0;fillStyle=solid;swimlaneFillColor=default;" parent="1" vertex="1">
          <mxGeometry x="660" y="320" width="120" height="140" as="geometry" />
        </mxCell>
        <mxCell id="WtpKnIh7mjB2KUd-CaIE-14" value="" style="html=1;verticalAlign=bottom;endArrow=block;curved=0;rounded=0;entryX=0.001;entryY=0.348;entryDx=0;entryDy=0;entryPerimeter=0;" parent="1" target="WtpKnIh7mjB2KUd-CaIE-12" edge="1">
          <mxGeometry x="-0.0529" y="12" width="80" relative="1" as="geometry">
            <mxPoint x="470" y="369" as="sourcePoint" />
            <mxPoint x="550" y="362.5" as="targetPoint" />
            <mxPoint as="offset" />
          </mxGeometry>
        </mxCell>
        <mxCell id="WtpKnIh7mjB2KUd-CaIE-15" value="sd&lt;br&gt;consume(num:int)" style="text;html=1;align=center;verticalAlign=middle;resizable=0;points=[];autosize=1;strokeColor=none;fillColor=none;" parent="1" vertex="1">
          <mxGeometry x="660" y="343" width="120" height="40" as="geometry" />
        </mxCell>
        <mxCell id="WtpKnIh7mjB2KUd-CaIE-16" value="loop" style="shape=umlFrame;whiteSpace=wrap;html=1;pointerEvents=0;" parent="1" vertex="1">
          <mxGeometry x="450" y="308" width="350" height="172" as="geometry" />
        </mxCell>
        <mxCell id="WtpKnIh7mjB2KUd-CaIE-17" value="return" style="html=1;verticalAlign=bottom;endArrow=open;dashed=1;endSize=8;curved=0;rounded=0;" parent="1" edge="1">
          <mxGeometry relative="1" as="geometry">
            <mxPoint x="660" y="440" as="sourcePoint" />
            <mxPoint x="470" y="440" as="targetPoint" />
          </mxGeometry>
        </mxCell>
        <mxCell id="WtpKnIh7mjB2KUd-CaIE-18" value="" style="line;strokeWidth=1;fillColor=none;align=left;verticalAlign=middle;spacingTop=-1;spacingLeft=3;spacingRight=3;rotatable=0;labelPosition=right;points=[];portConstraint=eastwest;strokeColor=inherit;dashed=1;" parent="1" vertex="1">
          <mxGeometry x="70" y="500" width="740" height="8" as="geometry" />
        </mxCell>
        <mxCell id="WtpKnIh7mjB2KUd-CaIE-19" value="sd" style="shape=umlFrame;whiteSpace=wrap;html=1;pointerEvents=0;" parent="1" vertex="1">
          <mxGeometry x="10" y="50" width="830" height="530" as="geometry" />
        </mxCell>
      </root>
    </mxGraphModel>
  </diagram>
  <diagram name="комуникацции" id="lfs-6bgcFserosB3XhjF">
    <mxGraphModel dx="1880" dy="4120" grid="1" gridSize="10" guides="1" tooltips="1" connect="1" arrows="1" fold="1" page="1" pageScale="1" pageWidth="827" pageHeight="1169" math="0" shadow="0">
      <root>
        <mxCell id="0" />
        <mxCell id="1" parent="0" />
        <mxCell id="7VbgH_N1EevnAogZJFor-1" value="Actor" style="shape=umlActor;verticalLabelPosition=bottom;verticalAlign=top;html=1;" parent="1" vertex="1">
          <mxGeometry x="60" y="250" width="70" height="150" as="geometry" />
        </mxCell>
        <mxCell id="7VbgH_N1EevnAogZJFor-2" style="edgeStyle=orthogonalEdgeStyle;rounded=0;orthogonalLoop=1;jettySize=auto;html=1;endArrow=none;endFill=0;" parent="1" target="7VbgH_N1EevnAogZJFor-5" edge="1">
          <mxGeometry relative="1" as="geometry">
            <mxPoint x="100" y="345" as="sourcePoint" />
          </mxGeometry>
        </mxCell>
        <mxCell id="7VbgH_N1EevnAogZJFor-3" style="edgeStyle=orthogonalEdgeStyle;rounded=0;orthogonalLoop=1;jettySize=auto;html=1;endArrow=none;endFill=0;" parent="1" source="7VbgH_N1EevnAogZJFor-5" target="7VbgH_N1EevnAogZJFor-9" edge="1">
          <mxGeometry relative="1" as="geometry" />
        </mxCell>
        <mxCell id="7VbgH_N1EevnAogZJFor-4" style="edgeStyle=orthogonalEdgeStyle;rounded=0;orthogonalLoop=1;jettySize=auto;html=1;endArrow=none;endFill=0;" parent="1" source="7VbgH_N1EevnAogZJFor-5" edge="1">
          <mxGeometry relative="1" as="geometry">
            <mxPoint x="275" y="450" as="targetPoint" />
          </mxGeometry>
        </mxCell>
        <mxCell id="7VbgH_N1EevnAogZJFor-5" value="Catalogue" style="html=1;whiteSpace=wrap;" parent="1" vertex="1">
          <mxGeometry x="220" y="320" width="110" height="50" as="geometry" />
        </mxCell>
        <mxCell id="7VbgH_N1EevnAogZJFor-6" style="edgeStyle=orthogonalEdgeStyle;rounded=0;orthogonalLoop=1;jettySize=auto;html=1;exitX=0;exitY=0;exitDx=0;exitDy=0;entryX=1;entryY=0;entryDx=0;entryDy=0;endArrow=none;endFill=0;" parent="1" source="7VbgH_N1EevnAogZJFor-5" target="7VbgH_N1EevnAogZJFor-5" edge="1">
          <mxGeometry relative="1" as="geometry">
            <Array as="points">
              <mxPoint x="260" y="320" />
              <mxPoint x="260" y="300" />
              <mxPoint x="350" y="300" />
              <mxPoint x="350" y="330" />
              <mxPoint x="330" y="330" />
            </Array>
          </mxGeometry>
        </mxCell>
        <mxCell id="7VbgH_N1EevnAogZJFor-7" style="edgeStyle=orthogonalEdgeStyle;rounded=0;orthogonalLoop=1;jettySize=auto;html=1;endArrow=open;endFill=0;" parent="1" edge="1">
          <mxGeometry relative="1" as="geometry">
            <mxPoint x="334" y="285" as="targetPoint" />
            <mxPoint x="314" y="285" as="sourcePoint" />
          </mxGeometry>
        </mxCell>
        <mxCell id="7VbgH_N1EevnAogZJFor-8" value="1.1:sell()" style="text;html=1;align=center;verticalAlign=middle;resizable=0;points=[];autosize=1;strokeColor=none;fillColor=none;" parent="1" vertex="1">
          <mxGeometry x="257" y="270" width="70" height="30" as="geometry" />
        </mxCell>
        <mxCell id="7VbgH_N1EevnAogZJFor-9" value="Goods" style="html=1;whiteSpace=wrap;" parent="1" vertex="1">
          <mxGeometry x="495" y="320" width="110" height="50" as="geometry" />
        </mxCell>
        <mxCell id="7VbgH_N1EevnAogZJFor-10" style="edgeStyle=orthogonalEdgeStyle;rounded=0;orthogonalLoop=1;jettySize=auto;html=1;exitX=0;exitY=0;exitDx=0;exitDy=0;entryX=1;entryY=0;entryDx=0;entryDy=0;endArrow=none;endFill=0;" parent="1" edge="1">
          <mxGeometry relative="1" as="geometry">
            <mxPoint x="495" y="319.96" as="sourcePoint" />
            <mxPoint x="605" y="319.96" as="targetPoint" />
            <Array as="points">
              <mxPoint x="535" y="319.96" />
              <mxPoint x="535" y="299.96" />
              <mxPoint x="625" y="299.96" />
              <mxPoint x="625" y="329.96" />
              <mxPoint x="605" y="329.96" />
            </Array>
          </mxGeometry>
        </mxCell>
        <mxCell id="7VbgH_N1EevnAogZJFor-11" style="edgeStyle=orthogonalEdgeStyle;rounded=0;orthogonalLoop=1;jettySize=auto;html=1;endArrow=open;endFill=0;exitX=0.992;exitY=0.507;exitDx=0;exitDy=0;exitPerimeter=0;" parent="1" source="7VbgH_N1EevnAogZJFor-12" edge="1">
          <mxGeometry relative="1" as="geometry">
            <mxPoint x="451" y="335" as="targetPoint" />
            <mxPoint x="441" y="335.0476190476189" as="sourcePoint" />
          </mxGeometry>
        </mxCell>
        <mxCell id="7VbgH_N1EevnAogZJFor-12" value="1.2:consume()" style="text;html=1;align=center;verticalAlign=middle;resizable=0;points=[];autosize=1;strokeColor=none;fillColor=none;" parent="1" vertex="1">
          <mxGeometry x="340" y="320" width="100" height="30" as="geometry" />
        </mxCell>
        <mxCell id="7VbgH_N1EevnAogZJFor-13" style="edgeStyle=orthogonalEdgeStyle;rounded=0;orthogonalLoop=1;jettySize=auto;html=1;endArrow=open;endFill=0;exitX=0.995;exitY=0.501;exitDx=0;exitDy=0;exitPerimeter=0;" parent="1" source="7VbgH_N1EevnAogZJFor-14" edge="1">
          <mxGeometry relative="1" as="geometry">
            <mxPoint x="690.0000000000001" y="293" as="targetPoint" />
            <mxPoint x="685" y="293.0112359550562" as="sourcePoint" />
          </mxGeometry>
        </mxCell>
        <mxCell id="7VbgH_N1EevnAogZJFor-14" value="1.2.1:produce(consumable_products)" style="text;html=1;align=center;verticalAlign=middle;resizable=0;points=[];autosize=1;strokeColor=none;fillColor=none;" parent="1" vertex="1">
          <mxGeometry x="455" y="278" width="220" height="30" as="geometry" />
        </mxCell>
        <mxCell id="7VbgH_N1EevnAogZJFor-15" value="1.sellprodct" style="text;html=1;align=center;verticalAlign=middle;resizable=0;points=[];autosize=1;strokeColor=none;fillColor=none;" parent="1" vertex="1">
          <mxGeometry x="100" y="318" width="80" height="30" as="geometry" />
        </mxCell>
        <mxCell id="7VbgH_N1EevnAogZJFor-16" style="edgeStyle=orthogonalEdgeStyle;rounded=0;orthogonalLoop=1;jettySize=auto;html=1;endArrow=none;endFill=0;" parent="1" source="7VbgH_N1EevnAogZJFor-17" target="7VbgH_N1EevnAogZJFor-20" edge="1">
          <mxGeometry relative="1" as="geometry">
            <mxPoint x="410" y="475" as="targetPoint" />
          </mxGeometry>
        </mxCell>
        <mxCell id="7VbgH_N1EevnAogZJFor-17" value="CoffeeShop" style="html=1;whiteSpace=wrap;" parent="1" vertex="1">
          <mxGeometry x="217" y="450" width="110" height="50" as="geometry" />
        </mxCell>
        <mxCell id="7VbgH_N1EevnAogZJFor-18" style="edgeStyle=orthogonalEdgeStyle;rounded=0;orthogonalLoop=1;jettySize=auto;html=1;endArrow=open;endFill=0;" parent="1" source="7VbgH_N1EevnAogZJFor-19" edge="1">
          <mxGeometry relative="1" as="geometry">
            <mxPoint x="420" y="405" as="targetPoint" />
          </mxGeometry>
        </mxCell>
        <mxCell id="7VbgH_N1EevnAogZJFor-19" value="1.1.1:CreateOrder" style="text;html=1;align=center;verticalAlign=middle;resizable=0;points=[];autosize=1;strokeColor=none;fillColor=none;" parent="1" vertex="1">
          <mxGeometry x="270" y="390" width="120" height="30" as="geometry" />
        </mxCell>
        <mxCell id="7VbgH_N1EevnAogZJFor-20" value="Order" style="html=1;whiteSpace=wrap;" parent="1" vertex="1">
          <mxGeometry x="450" y="450" width="110" height="50" as="geometry" />
        </mxCell>
        <mxCell id="7VbgH_N1EevnAogZJFor-21" style="edgeStyle=orthogonalEdgeStyle;rounded=0;orthogonalLoop=1;jettySize=auto;html=1;endArrow=open;endFill=0;" parent="1" source="7VbgH_N1EevnAogZJFor-22" edge="1">
          <mxGeometry relative="1" as="geometry">
            <mxPoint x="440" y="463" as="targetPoint" />
          </mxGeometry>
        </mxCell>
        <mxCell id="7VbgH_N1EevnAogZJFor-22" value="1.1.2&amp;nbsp; pay" style="text;html=1;align=center;verticalAlign=middle;resizable=0;points=[];autosize=1;strokeColor=none;fillColor=none;" parent="1" vertex="1">
          <mxGeometry x="339" y="448" width="80" height="30" as="geometry" />
        </mxCell>
        <mxCell id="7VbgH_N1EevnAogZJFor-23" value="Actor" style="shape=umlActor;verticalLabelPosition=bottom;verticalAlign=top;html=1;" parent="1" vertex="1">
          <mxGeometry x="106.5" y="630" width="70" height="150" as="geometry" />
        </mxCell>
        <mxCell id="7VbgH_N1EevnAogZJFor-24" style="edgeStyle=orthogonalEdgeStyle;rounded=0;orthogonalLoop=1;jettySize=auto;html=1;endArrow=none;endFill=0;" parent="1" target="7VbgH_N1EevnAogZJFor-26" edge="1">
          <mxGeometry relative="1" as="geometry">
            <mxPoint x="146.5" y="725" as="sourcePoint" />
          </mxGeometry>
        </mxCell>
        <mxCell id="7VbgH_N1EevnAogZJFor-25" style="edgeStyle=orthogonalEdgeStyle;rounded=0;orthogonalLoop=1;jettySize=auto;html=1;endArrow=none;endFill=0;" parent="1" source="7VbgH_N1EevnAogZJFor-26" target="7VbgH_N1EevnAogZJFor-30" edge="1">
          <mxGeometry relative="1" as="geometry" />
        </mxCell>
        <mxCell id="7VbgH_N1EevnAogZJFor-26" value="CoffeeShop" style="html=1;whiteSpace=wrap;" parent="1" vertex="1">
          <mxGeometry x="266.5" y="700" width="110" height="50" as="geometry" />
        </mxCell>
        <mxCell id="7VbgH_N1EevnAogZJFor-27" style="edgeStyle=orthogonalEdgeStyle;rounded=0;orthogonalLoop=1;jettySize=auto;html=1;exitX=0;exitY=0;exitDx=0;exitDy=0;entryX=1;entryY=0;entryDx=0;entryDy=0;endArrow=none;endFill=0;" parent="1" source="7VbgH_N1EevnAogZJFor-26" target="7VbgH_N1EevnAogZJFor-26" edge="1">
          <mxGeometry relative="1" as="geometry">
            <Array as="points">
              <mxPoint x="306.5" y="700" />
              <mxPoint x="306.5" y="680" />
              <mxPoint x="396.5" y="680" />
              <mxPoint x="396.5" y="710" />
              <mxPoint x="376.5" y="710" />
            </Array>
          </mxGeometry>
        </mxCell>
        <mxCell id="7VbgH_N1EevnAogZJFor-28" style="edgeStyle=orthogonalEdgeStyle;rounded=0;orthogonalLoop=1;jettySize=auto;html=1;endArrow=open;endFill=0;" parent="1" edge="1">
          <mxGeometry relative="1" as="geometry">
            <mxPoint x="407.5" y="665" as="targetPoint" />
            <mxPoint x="387.5" y="665" as="sourcePoint" />
          </mxGeometry>
        </mxCell>
        <mxCell id="7VbgH_N1EevnAogZJFor-29" value="1.1:CreateOrder()" style="text;html=1;align=center;verticalAlign=middle;resizable=0;points=[];autosize=1;strokeColor=none;fillColor=none;" parent="1" vertex="1">
          <mxGeometry x="274.5" y="650" width="120" height="30" as="geometry" />
        </mxCell>
        <mxCell id="7VbgH_N1EevnAogZJFor-30" value="Catalogue" style="html=1;whiteSpace=wrap;" parent="1" vertex="1">
          <mxGeometry x="541.5" y="700" width="110" height="50" as="geometry" />
        </mxCell>
        <mxCell id="7VbgH_N1EevnAogZJFor-31" style="edgeStyle=orthogonalEdgeStyle;rounded=0;orthogonalLoop=1;jettySize=auto;html=1;endArrow=open;endFill=0;exitX=0.992;exitY=0.507;exitDx=0;exitDy=0;exitPerimeter=0;" parent="1" source="7VbgH_N1EevnAogZJFor-32" edge="1">
          <mxGeometry relative="1" as="geometry">
            <mxPoint x="497.5" y="715" as="targetPoint" />
            <mxPoint x="487.5" y="715.0476190476189" as="sourcePoint" />
          </mxGeometry>
        </mxCell>
        <mxCell id="7VbgH_N1EevnAogZJFor-32" value="1.2:sell()" style="text;html=1;align=center;verticalAlign=middle;resizable=0;points=[];autosize=1;strokeColor=none;fillColor=none;" parent="1" vertex="1">
          <mxGeometry x="401.5" y="700" width="70" height="30" as="geometry" />
        </mxCell>
        <mxCell id="7VbgH_N1EevnAogZJFor-33" style="edgeStyle=orthogonalEdgeStyle;rounded=0;orthogonalLoop=1;jettySize=auto;html=1;endArrow=open;endFill=0;exitX=0.995;exitY=0.501;exitDx=0;exitDy=0;exitPerimeter=0;" parent="1" edge="1">
          <mxGeometry relative="1" as="geometry">
            <mxPoint x="956.1000000000001" y="670" as="targetPoint" />
            <mxPoint x="940.0000000000001" y="670.03" as="sourcePoint" />
          </mxGeometry>
        </mxCell>
        <mxCell id="7VbgH_N1EevnAogZJFor-34" value="1.sellprodct" style="text;html=1;align=center;verticalAlign=middle;resizable=0;points=[];autosize=1;strokeColor=none;fillColor=none;" parent="1" vertex="1">
          <mxGeometry x="146.5" y="698" width="80" height="30" as="geometry" />
        </mxCell>
        <mxCell id="7VbgH_N1EevnAogZJFor-35" style="edgeStyle=orthogonalEdgeStyle;rounded=0;orthogonalLoop=1;jettySize=auto;html=1;endArrow=none;endFill=0;" parent="1" source="7VbgH_N1EevnAogZJFor-30" target="7VbgH_N1EevnAogZJFor-36" edge="1">
          <mxGeometry relative="1" as="geometry">
            <mxPoint x="456.5" y="855" as="targetPoint" />
            <mxPoint x="416.5" y="855" as="sourcePoint" />
          </mxGeometry>
        </mxCell>
        <mxCell id="7VbgH_N1EevnAogZJFor-36" value="Goods" style="html=1;whiteSpace=wrap;" parent="1" vertex="1">
          <mxGeometry x="541.5" y="830" width="110" height="50" as="geometry" />
        </mxCell>
        <mxCell id="7VbgH_N1EevnAogZJFor-37" style="edgeStyle=orthogonalEdgeStyle;rounded=0;orthogonalLoop=1;jettySize=auto;html=1;endArrow=open;endFill=0;" parent="1" edge="1">
          <mxGeometry relative="1" as="geometry">
            <mxPoint x="616.5" y="803" as="targetPoint" />
            <mxPoint x="616.5" y="790" as="sourcePoint" />
          </mxGeometry>
        </mxCell>
        <mxCell id="7VbgH_N1EevnAogZJFor-38" value="1.3:produce(consumable_products)" style="text;html=1;align=center;verticalAlign=middle;resizable=0;points=[];autosize=1;strokeColor=none;fillColor=none;" parent="1" vertex="1">
          <mxGeometry x="705" y="868" width="210" height="30" as="geometry" />
        </mxCell>
      </root>
    </mxGraphModel>
  </diagram>
  <diagram id="P6qqKfgEw2i7abv3OzQB" name="Страница — 3">
    <mxGraphModel dx="1203" dy="824" grid="1" gridSize="10" guides="1" tooltips="1" connect="1" arrows="1" fold="1" page="1" pageScale="1" pageWidth="827" pageHeight="1169" math="0" shadow="0">
      <root>
        <mxCell id="0" />
        <mxCell id="1" parent="0" />
        <mxCell id="eBRwLF1RfnSAX8nLlOip-1" style="edgeStyle=orthogonalEdgeStyle;rounded=0;orthogonalLoop=1;jettySize=auto;html=1;startArrow=circlePlus;startFill=0;endArrow=none;endFill=0;" edge="1" parent="1" source="eBRwLF1RfnSAX8nLlOip-3">
          <mxGeometry relative="1" as="geometry">
            <mxPoint x="200" y="420" as="targetPoint" />
          </mxGeometry>
        </mxCell>
        <mxCell id="eBRwLF1RfnSAX8nLlOip-2" style="edgeStyle=orthogonalEdgeStyle;rounded=0;orthogonalLoop=1;jettySize=auto;html=1;endArrow=open;endFill=0;dashed=1;dashPattern=12 12;entryX=0.5;entryY=1;entryDx=0;entryDy=0;entryPerimeter=0;exitX=0.498;exitY=0.159;exitDx=0;exitDy=0;exitPerimeter=0;" edge="1" parent="1" source="eBRwLF1RfnSAX8nLlOip-3" target="eBRwLF1RfnSAX8nLlOip-7">
          <mxGeometry relative="1" as="geometry">
            <mxPoint x="380" y="301" as="targetPoint" />
            <mxPoint x="364.74" y="397" as="sourcePoint" />
            <Array as="points">
              <mxPoint x="365" y="287" />
            </Array>
          </mxGeometry>
        </mxCell>
        <mxCell id="eBRwLF1RfnSAX8nLlOip-3" value="CofeeShop System" style="shape=folder;fontStyle=1;spacingTop=10;tabWidth=40;tabHeight=14;tabPosition=left;html=1;whiteSpace=wrap;" vertex="1" parent="1">
          <mxGeometry x="290" y="370" width="150" height="100" as="geometry" />
        </mxCell>
        <mxCell id="eBRwLF1RfnSAX8nLlOip-4" style="edgeStyle=orthogonalEdgeStyle;rounded=0;orthogonalLoop=1;jettySize=auto;html=1;endArrow=none;endFill=0;" edge="1" parent="1" source="eBRwLF1RfnSAX8nLlOip-5">
          <mxGeometry relative="1" as="geometry">
            <mxPoint x="200" y="427" as="targetPoint" />
          </mxGeometry>
        </mxCell>
        <mxCell id="eBRwLF1RfnSAX8nLlOip-5" value="Catalogue" style="html=1;whiteSpace=wrap;" vertex="1" parent="1">
          <mxGeometry x="70" y="397" width="100" height="20" as="geometry" />
        </mxCell>
        <mxCell id="eBRwLF1RfnSAX8nLlOip-6" style="edgeStyle=orthogonalEdgeStyle;rounded=0;orthogonalLoop=1;jettySize=auto;html=1;endArrow=none;endFill=0;exitX=1.01;exitY=0.511;exitDx=0;exitDy=0;exitPerimeter=0;" edge="1" parent="1" source="eBRwLF1RfnSAX8nLlOip-20">
          <mxGeometry relative="1" as="geometry">
            <mxPoint x="200" y="427" as="targetPoint" />
            <mxPoint x="170" y="437" as="sourcePoint" />
            <Array as="points">
              <mxPoint x="200" y="456" />
            </Array>
          </mxGeometry>
        </mxCell>
        <mxCell id="eBRwLF1RfnSAX8nLlOip-7" value="" style="shape=folder;fontStyle=1;spacingTop=10;tabWidth=90;tabHeight=20;tabPosition=left;html=1;whiteSpace=wrap;" vertex="1" parent="1">
          <mxGeometry x="260" y="150" width="210" height="124" as="geometry" />
        </mxCell>
        <mxCell id="eBRwLF1RfnSAX8nLlOip-8" value="&lt;pre style=&quot;font-size: 12px; line-height: 36px; background-color: transparent; border: medium; padding: 2px 0.14em 2px 0px; position: relative; margin-top: -2px; margin-bottom: -2px; resize: none; font-family: inherit; overflow: hidden; text-align: left; width: 270px; overflow-wrap: break-word; caret-color: rgb(32, 33, 36); color: rgb(32, 33, 36);&quot; dir=&quot;ltr&quot; data-ved=&quot;2ahUKEwiRleeK-bCCAxUCHhAIHSU9DLQQ3ewLegQIBhAQ&quot; id=&quot;tw-target-text&quot; data-placeholder=&quot;Перевод&quot; class=&quot;tw-data-text tw-text-large tw-ta&quot;&gt;&lt;b&gt;Sales&lt;/b&gt;&lt;/pre&gt;" style="text;html=1;align=center;verticalAlign=middle;resizable=0;points=[];autosize=1;strokeColor=none;fillColor=none;rotation=0;fontSize=12;" vertex="1" parent="1">
          <mxGeometry x="254.5" y="135" width="300" height="50" as="geometry" />
        </mxCell>
        <mxCell id="eBRwLF1RfnSAX8nLlOip-9" value="Product" style="shape=folder;fontStyle=1;spacingTop=10;tabWidth=40;tabHeight=14;tabPosition=left;html=1;whiteSpace=wrap;" vertex="1" parent="1">
          <mxGeometry x="270" y="210" width="80" height="50" as="geometry" />
        </mxCell>
        <mxCell id="eBRwLF1RfnSAX8nLlOip-10" value="CoffeeProduct" style="shape=folder;fontStyle=1;spacingTop=10;tabWidth=40;tabHeight=14;tabPosition=left;html=1;whiteSpace=wrap;" vertex="1" parent="1">
          <mxGeometry x="359" y="210" width="91" height="50" as="geometry" />
        </mxCell>
        <mxCell id="eBRwLF1RfnSAX8nLlOip-11" value="" style="shape=folder;fontStyle=1;spacingTop=10;tabWidth=52;tabHeight=15;tabPosition=left;html=1;whiteSpace=wrap;" vertex="1" parent="1">
          <mxGeometry x="568" y="245" width="165" height="90" as="geometry" />
        </mxCell>
        <mxCell id="eBRwLF1RfnSAX8nLlOip-12" value="Data&amp;nbsp;" style="text;html=1;align=center;verticalAlign=middle;resizable=0;points=[];autosize=1;strokeColor=none;fillColor=none;rotation=0;" vertex="1" parent="1">
          <mxGeometry x="560" y="240" width="50" height="30" as="geometry" />
        </mxCell>
        <mxCell id="eBRwLF1RfnSAX8nLlOip-13" value="Order DB" style="shape=folder;fontStyle=1;spacingTop=10;tabWidth=40;tabHeight=14;tabPosition=left;html=1;whiteSpace=wrap;" vertex="1" parent="1">
          <mxGeometry x="575" y="270" width="70" height="50" as="geometry" />
        </mxCell>
        <mxCell id="eBRwLF1RfnSAX8nLlOip-14" style="edgeStyle=orthogonalEdgeStyle;rounded=0;orthogonalLoop=1;jettySize=auto;html=1;entryX=0.002;entryY=0.446;entryDx=0;entryDy=0;entryPerimeter=0;endArrow=open;endFill=0;dashed=1;dashPattern=12 12;startArrow=none;startFill=0;" edge="1" parent="1" source="eBRwLF1RfnSAX8nLlOip-3" target="eBRwLF1RfnSAX8nLlOip-11">
          <mxGeometry relative="1" as="geometry">
            <Array as="points">
              <mxPoint x="555" y="420" />
            </Array>
          </mxGeometry>
        </mxCell>
        <mxCell id="eBRwLF1RfnSAX8nLlOip-15" value="Analytics Systems" style="shape=folder;fontStyle=1;spacingTop=10;tabWidth=40;tabHeight=14;tabPosition=left;html=1;whiteSpace=wrap;" vertex="1" parent="1">
          <mxGeometry x="585.5" y="410" width="130" height="70" as="geometry" />
        </mxCell>
        <mxCell id="eBRwLF1RfnSAX8nLlOip-16" style="edgeStyle=orthogonalEdgeStyle;rounded=0;orthogonalLoop=1;jettySize=auto;html=1;entryX=0.5;entryY=1;entryDx=0;entryDy=0;entryPerimeter=0;exitX=0.501;exitY=0.214;exitDx=0;exitDy=0;exitPerimeter=0;endArrow=open;endFill=0;dashed=1;dashPattern=12 12;" edge="1" parent="1" source="eBRwLF1RfnSAX8nLlOip-15" target="eBRwLF1RfnSAX8nLlOip-11">
          <mxGeometry relative="1" as="geometry" />
        </mxCell>
        <mxCell id="eBRwLF1RfnSAX8nLlOip-17" value="&lt;font style=&quot;font-size: 10px;&quot;&gt;+Catalogue&lt;br&gt;+Goods&lt;br&gt;+Product&lt;/font&gt;" style="shape=folder;fontStyle=1;spacingTop=10;tabWidth=40;tabHeight=14;tabPosition=left;html=1;whiteSpace=wrap;" vertex="1" parent="1">
          <mxGeometry x="653" y="270" width="70" height="60" as="geometry" />
        </mxCell>
        <mxCell id="eBRwLF1RfnSAX8nLlOip-18" value="Planning Systems" style="shape=folder;fontStyle=1;spacingTop=10;tabWidth=40;tabHeight=14;tabPosition=left;html=1;whiteSpace=wrap;" vertex="1" parent="1">
          <mxGeometry x="36" y="189" width="140" height="63" as="geometry" />
        </mxCell>
        <mxCell id="eBRwLF1RfnSAX8nLlOip-19" style="edgeStyle=orthogonalEdgeStyle;rounded=0;orthogonalLoop=1;jettySize=auto;html=1;entryX=-0.022;entryY=0.547;entryDx=0;entryDy=0;entryPerimeter=0;dashed=1;dashPattern=12 12;endArrow=open;endFill=0;" edge="1" parent="1" source="eBRwLF1RfnSAX8nLlOip-18">
          <mxGeometry relative="1" as="geometry">
            <mxPoint x="261" y="220" as="targetPoint" />
          </mxGeometry>
        </mxCell>
        <mxCell id="eBRwLF1RfnSAX8nLlOip-20" value="Order Processing" style="shape=folder;fontStyle=1;spacingTop=10;tabWidth=36;tabHeight=10;tabPosition=left;html=1;whiteSpace=wrap;" vertex="1" parent="1">
          <mxGeometry x="64" y="430" width="106" height="50" as="geometry" />
        </mxCell>
        <mxCell id="eBRwLF1RfnSAX8nLlOip-21" value="Goods" style="shape=folder;fontStyle=1;spacingTop=10;tabWidth=40;tabHeight=14;tabPosition=left;html=1;whiteSpace=wrap;" vertex="1" parent="1">
          <mxGeometry x="-670" y="760" width="70" height="50" as="geometry" />
        </mxCell>
        <mxCell id="eBRwLF1RfnSAX8nLlOip-22" value="Catalog" style="shape=folder;fontStyle=1;spacingTop=10;tabWidth=40;tabHeight=14;tabPosition=left;html=1;whiteSpace=wrap;" vertex="1" parent="1">
          <mxGeometry x="-796" y="761" width="70" height="50" as="geometry" />
        </mxCell>
        <mxCell id="eBRwLF1RfnSAX8nLlOip-23" value="Roaster" style="shape=folder;fontStyle=1;spacingTop=10;tabWidth=40;tabHeight=14;tabPosition=left;html=1;whiteSpace=wrap;" vertex="1" parent="1">
          <mxGeometry x="-660" y="860" width="70" height="50" as="geometry" />
        </mxCell>
        <mxCell id="eBRwLF1RfnSAX8nLlOip-24" style="edgeStyle=orthogonalEdgeStyle;rounded=0;orthogonalLoop=1;jettySize=auto;html=1;endArrow=open;endFill=0;dashed=1;dashPattern=12 12;" edge="1" parent="1" source="eBRwLF1RfnSAX8nLlOip-25" target="eBRwLF1RfnSAX8nLlOip-22">
          <mxGeometry relative="1" as="geometry" />
        </mxCell>
        <mxCell id="eBRwLF1RfnSAX8nLlOip-25" value="order" style="shape=folder;fontStyle=1;spacingTop=10;tabWidth=40;tabHeight=14;tabPosition=left;html=1;whiteSpace=wrap;" vertex="1" parent="1">
          <mxGeometry x="-796" y="863" width="70" height="50" as="geometry" />
        </mxCell>
        <mxCell id="eBRwLF1RfnSAX8nLlOip-26" value="CoffeProduct" style="shape=folder;fontStyle=1;spacingTop=10;tabWidth=40;tabHeight=14;tabPosition=left;html=1;whiteSpace=wrap;" vertex="1" parent="1">
          <mxGeometry x="-512" y="855" width="90" height="50" as="geometry" />
        </mxCell>
        <mxCell id="eBRwLF1RfnSAX8nLlOip-27" style="edgeStyle=orthogonalEdgeStyle;rounded=0;orthogonalLoop=1;jettySize=auto;html=1;entryX=-0.018;entryY=0.523;entryDx=0;entryDy=0;entryPerimeter=0;endArrow=open;endFill=0;dashed=1;dashPattern=12 12;" edge="1" parent="1" source="eBRwLF1RfnSAX8nLlOip-22" target="eBRwLF1RfnSAX8nLlOip-21">
          <mxGeometry relative="1" as="geometry" />
        </mxCell>
        <mxCell id="eBRwLF1RfnSAX8nLlOip-28" style="edgeStyle=orthogonalEdgeStyle;rounded=0;orthogonalLoop=1;jettySize=auto;html=1;entryX=0;entryY=0;entryDx=0;entryDy=32;entryPerimeter=0;dashed=1;dashPattern=12 12;endArrow=open;endFill=0;" edge="1" parent="1" source="eBRwLF1RfnSAX8nLlOip-23" target="eBRwLF1RfnSAX8nLlOip-26">
          <mxGeometry relative="1" as="geometry" />
        </mxCell>
        <mxCell id="eBRwLF1RfnSAX8nLlOip-29" value="PerishableProduct" style="shape=folder;fontStyle=1;spacingTop=10;tabWidth=40;tabHeight=14;tabPosition=left;html=1;whiteSpace=wrap;" vertex="1" parent="1">
          <mxGeometry x="-365" y="859" width="120" height="60" as="geometry" />
        </mxCell>
        <mxCell id="eBRwLF1RfnSAX8nLlOip-30" style="edgeStyle=orthogonalEdgeStyle;rounded=0;orthogonalLoop=1;jettySize=auto;html=1;entryX=-0.012;entryY=0.35;entryDx=0;entryDy=0;entryPerimeter=0;dashed=1;dashPattern=12 12;endArrow=open;endFill=0;" edge="1" parent="1" source="eBRwLF1RfnSAX8nLlOip-26" target="eBRwLF1RfnSAX8nLlOip-29">
          <mxGeometry relative="1" as="geometry" />
        </mxCell>
        <mxCell id="eBRwLF1RfnSAX8nLlOip-31" style="edgeStyle=orthogonalEdgeStyle;rounded=0;orthogonalLoop=1;jettySize=auto;html=1;dashed=1;dashPattern=12 12;endArrow=open;endFill=0;" edge="1" parent="1" source="eBRwLF1RfnSAX8nLlOip-32" target="eBRwLF1RfnSAX8nLlOip-29">
          <mxGeometry relative="1" as="geometry" />
        </mxCell>
        <mxCell id="eBRwLF1RfnSAX8nLlOip-32" value="Product" style="shape=folder;fontStyle=1;spacingTop=10;tabWidth=40;tabHeight=14;tabPosition=left;html=1;whiteSpace=wrap;" vertex="1" parent="1">
          <mxGeometry x="-365" y="970" width="120" height="60" as="geometry" />
        </mxCell>
        <mxCell id="eBRwLF1RfnSAX8nLlOip-33" value="AProduct" style="shape=folder;fontStyle=1;spacingTop=10;tabWidth=40;tabHeight=14;tabPosition=left;html=1;whiteSpace=wrap;" vertex="1" parent="1">
          <mxGeometry x="-365" y="764" width="120" height="60" as="geometry" />
        </mxCell>
        <mxCell id="eBRwLF1RfnSAX8nLlOip-34" style="edgeStyle=orthogonalEdgeStyle;rounded=0;orthogonalLoop=1;jettySize=auto;html=1;entryX=-0.003;entryY=0.35;entryDx=0;entryDy=0;entryPerimeter=0;dashed=1;dashPattern=12 12;endArrow=open;endFill=0;" edge="1" parent="1" source="eBRwLF1RfnSAX8nLlOip-21" target="eBRwLF1RfnSAX8nLlOip-33">
          <mxGeometry relative="1" as="geometry" />
        </mxCell>
        <mxCell id="eBRwLF1RfnSAX8nLlOip-35" style="edgeStyle=orthogonalEdgeStyle;rounded=0;orthogonalLoop=1;jettySize=auto;html=1;entryX=0.5;entryY=1;entryDx=0;entryDy=0;entryPerimeter=0;endArrow=open;endFill=0;dashed=1;dashPattern=12 12;exitX=0.497;exitY=0.182;exitDx=0;exitDy=0;exitPerimeter=0;" edge="1" parent="1" source="eBRwLF1RfnSAX8nLlOip-29" target="eBRwLF1RfnSAX8nLlOip-33">
          <mxGeometry relative="1" as="geometry" />
        </mxCell>
        <mxCell id="eBRwLF1RfnSAX8nLlOip-36" value="&lt;font style=&quot;font-size: 7px;&quot;&gt;Database&lt;br&gt;&lt;/font&gt;" style="text;html=1;align=center;verticalAlign=middle;resizable=0;points=[];autosize=1;strokeColor=none;fillColor=none;" vertex="1" parent="1">
          <mxGeometry x="648" y="262" width="50" height="30" as="geometry" />
        </mxCell>
        <mxCell id="eBRwLF1RfnSAX8nLlOip-37" value="На диаграмме показаны составляющие элементы пакета CofeeShop System&lt;br&gt;пакет&amp;nbsp;Order Processing и клас&amp;nbsp;Catalogue отображает принадлежность .&lt;br&gt;&amp;nbsp;Главная по функциональности часть&amp;nbsp;CofeeShop System&lt;br&gt;&amp;nbsp;взаимодействует с пакетом продажи , Sales&lt;span style=&quot;background-color: initial;&quot;&gt;,&lt;/span&gt;&lt;br&gt;который осуществляет продать&amp;nbsp; продуктов (Product) и&lt;br&gt;&amp;nbsp;и кофе продукты (CoffeeProduct).&lt;br&gt;Система планирования Planning Systems взаимодействует с данным пакетом.&lt;br&gt;Все данные о заказе и о продукте хранятся в пакете Data&lt;br&gt;доступ к которому имеют&amp;nbsp;CofeeShop System и&amp;nbsp;Analytics Systems&lt;br&gt;&amp;nbsp;" style="text;html=1;align=center;verticalAlign=middle;resizable=0;points=[];autosize=1;strokeColor=none;fillColor=none;" vertex="1" parent="1">
          <mxGeometry x="-105" y="563" width="470" height="160" as="geometry" />
        </mxCell>
        <mxCell id="eBRwLF1RfnSAX8nLlOip-38" style="edgeStyle=orthogonalEdgeStyle;rounded=0;orthogonalLoop=1;jettySize=auto;html=1;endArrow=open;endFill=0;dashed=1;dashPattern=12 12;exitX=0.498;exitY=0.159;exitDx=0;exitDy=0;exitPerimeter=0;" edge="1" parent="1" target="eBRwLF1RfnSAX8nLlOip-18">
          <mxGeometry relative="1" as="geometry">
            <mxPoint x="375" y="284" as="targetPoint" />
            <mxPoint x="375" y="396" as="sourcePoint" />
            <Array as="points">
              <mxPoint x="360" y="396" />
              <mxPoint x="360" y="297" />
              <mxPoint x="106" y="297" />
            </Array>
          </mxGeometry>
        </mxCell>
      </root>
    </mxGraphModel>
  </diagram>
</mxfile>
